<?xml version="1.0" encoding="iso-8859-1"?>
<!-- Generator: Adobe Illustrator 19.0.0, SVG Export Plug-In . SVG Version: 6.00 Build 0)  -->
<svg version="1.1" id="Capa_1" xmlns="http://www.w3.org/2000/svg" xmlns:xlink="http://www.w3.org/1999/xlink" x="0px" y="0px"
	 viewBox="0 0 496 496" style="enable-background:new 0 0 496 496;" xml:space="preserve">
<path style="fill:#FFA64D;" d="M80,8v160c0,13.256,10.744,24,24,24s24,10.744,24,24v72c0,13.256,10.744,24,24,24s24-10.744,24-24
	V136c0-13.256,10.744-24,24-24s24-10.744,24-24V8H80z"/>
<path style="fill:#333333;" d="M280.328,480h-160.64c-2.552-32.4-20.344-59.464-40.696-90.44C49.472,344.624,16,293.696,16,208
	c0-93.568,34.648-135.144,43.224-144H72v104c0,17.648,14.352,32,32,32c8.816,0,16,7.176,16,16v72c0,17.648,14.352,32,32,32
	s32-14.352,32-32V136c0-8.824,7.176-16,16-16c17.648,0,32-14.352,32-32V64h72V48h-72V16h120c8.816,0,16,7.176,16,16
	c0,8.816-7.184,16-16,16h-32v16h20.776C349.352,72.856,384,114.432,384,208c0,9.088-0.4,18.232-1.192,27.176l15.936,1.408
	C399.576,227.176,400,217.552,400,208c0-80.912-24.352-125.472-39.376-145.328C374.064,58.88,384,46.64,384,32
	c0-17.648-14.352-32-32-32H48C30.352,0,16,14.352,16,32c0,14.64,9.936,26.88,23.376,30.672C24.352,82.528,0,127.088,0,208
	c0,90.48,36.384,145.856,65.616,190.344C86.208,429.688,104,456.76,104,488v8h192v-8c0-6.232,0.712-12.432,2.168-18.936
	l-15.608-3.504C281.456,470.48,280.72,475.248,280.328,480z M216,88c0,8.816-7.184,16-16,16c-17.648,0-32,14.352-32,32v152
	c0,8.816-7.184,16-16,16c-8.824,0-16-7.184-16-16v-72c0-17.648-14.352-32-32-32c-8.824,0-16-7.184-16-16V16h128V88z M32,32
	c0-8.824,7.176-16,16-16h24v32H48C39.176,48,32,40.816,32,32z"/>
<path style="fill:#FFA64D;" d="M360,496c-74.992,0-136-61.008-136-136s61.008-136,136-136s136,61.008,136,136S434.992,496,360,496z"
	/>
<g>
	<path style="fill:#333333;" d="M457.944,383.504c-3.568-13.072-11.888-26.632-23.44-38.184
		c-11.296-11.296-23.968-19.016-35.944-22.736c0.944-3.432,1.44-6.992,1.44-10.584c0-10.968-4.448-20.912-11.624-28.144
		l10.28-15.416l-13.312-8.872L375.056,275c-4.656-1.904-9.728-3-15.056-3s-10.4,1.096-15.056,2.992l-10.288-15.432l-13.312,8.872
		l10.28,15.416C324.448,291.088,320,301.032,320,312c0,3.656,0.504,7.272,1.472,10.744c-11.808,3.784-24.256,11.464-35.376,22.584
		c-11.544,11.544-19.864,25.112-23.44,38.184c-3.992,14.64-1.696,27.2,6.472,35.36c5.536,5.544,13.112,8.384,21.976,8.384
		c4.192,0,8.68-0.632,13.384-1.912c7.248-1.976,14.616-5.544,21.744-10.184C333.36,435.632,345.72,448,360,448
		c14.472,0,26.792-12.496,33.872-33.208c7.28,4.816,14.824,8.52,22.256,10.544c4.696,1.28,9.184,1.912,13.376,1.912
		c8.864,0,16.44-2.84,21.976-8.384C459.64,410.712,461.936,398.152,457.944,383.504z M384,312c0,2.8-0.656,5.504-1.592,8.104
		c-8.464,0.128-15.952,2.76-21.44,8.256c-0.24,0.24-0.432,0.528-0.664,0.776c-0.232-0.248-0.424-0.536-0.664-0.776
		c-5.624-5.624-13.336-8.264-22.048-8.264C336.656,317.496,336,314.8,336,312c0-13.232,10.768-24,24-24S384,298.768,384,312z
		 M300.28,409.896c-8.752,2.368-15.96,1.52-19.832-2.344c-3.864-3.864-4.728-11.104-2.344-19.832
		c2.808-10.272,9.84-21.608,19.312-31.08c13.976-13.976,29.36-20.624,40.104-20.624c4.624,0,8.392,1.24,10.816,3.656
		c8.024,8.032,3.032,30.912-16.968,50.912C321.888,400.056,310.552,407.096,300.28,409.896z M360,432
		c-7.792,0-15.832-11.12-20.312-27.44c0.984-0.912,2.024-1.704,2.976-2.656c7.512-7.504,13.408-15.624,17.632-23.736
		c4.232,8.12,10.128,16.232,17.64,23.736c0.8,0.8,1.672,1.456,2.496,2.224C376,420.552,367.824,432,360,432z M440.168,407.552
		c-3.872,3.864-11.096,4.712-19.832,2.344c-10.272-2.808-21.6-9.848-31.072-19.312c-20.008-20-25-42.88-16.976-50.912
		c2.424-2.416,6.184-3.648,10.824-3.648c10.736,0,26.12,6.648,40.096,20.616c9.472,9.472,16.504,20.808,19.312,31.08
		C444.888,396.456,444.032,403.688,440.168,407.552z"/>
	<rect x="120" y="40" style="fill:#333333;" width="16" height="16"/>
	<rect x="120" y="72" style="fill:#333333;" width="16" height="48"/>
</g>
<g>
</g>
<g>
</g>
<g>
</g>
<g>
</g>
<g>
</g>
<g>
</g>
<g>
</g>
<g>
</g>
<g>
</g>
<g>
</g>
<g>
</g>
<g>
</g>
<g>
</g>
<g>
</g>
<g>
</g>
</svg>
