<?xml version="1.0" encoding="iso-8859-1"?>
<!-- Generator: Adobe Illustrator 19.0.0, SVG Export Plug-In . SVG Version: 6.00 Build 0)  -->
<svg version="1.1" id="Capa_1" xmlns="http://www.w3.org/2000/svg" xmlns:xlink="http://www.w3.org/1999/xlink" x="0px" y="0px"
	 viewBox="0 0 496.004 496.004" style="enable-background:new 0 0 496.004 496.004;" xml:space="preserve">
<path style="fill:#FFA64D;" d="M462.64,344.002H440c-8.84,0-16-7.16-16-16v-96.64c0-8.872,7.456-15.192,16.328-15.368
	c8.68-0.168,15.672-7.264,15.672-15.992v-64v-112h-32v-16h-32v144v96c0,8.84-7.16,16-16,16s-16,7.16-16,16v48c0,8.84-7.16,16-16,16
	h-88c-13.096,0-24.232,10.488-24.008,23.576c0.232,13.448-10.6,24.424-23.992,24.424h-72c-13.096,0-24.232,10.488-24.008,23.576
	c0.232,13.448-10.6,24.424-23.992,24.424h-6.64c-12.992,0-24.648,9.728-25.328,22.712c-0.72,13.84,10.288,25.288,23.968,25.288
	h334.64c12.992,0,24.64-9.728,25.328-22.712c0.72-13.84-10.288-25.288-23.968-25.288h-22.64c-12.992,0-24.64-9.728-25.32-22.712
	c-0.728-13.84,10.28-25.288,23.96-25.288h72c13.68,0,24.688-11.448,23.968-25.288C487.288,353.73,475.64,344.002,462.64,344.002z"/>
<g>
	<path style="fill:#333333;" d="M440.488,224.002c12.968-0.272,23.512-11.04,23.512-24v-64v-8h8c13.232,0,24-10.768,24-24v-48
		c0-13.232-10.768-24-24-24h-8v-16h-32v-16h-48v16h-32v16h-8c-13.232,0-24,10.768-24,24H24c-13.232,0-24,10.768-24,24
		s10.768,24,24,24h296c0,13.232,10.768,24,24,24h8v16h32v8v96c0,4.416-3.584,8-8,8c-13.232,0-24,10.768-24,24v48
		c0,4.416-3.584,8-8,8h-88c-8.64,0-17.064,3.528-23.112,9.68c-5.872,5.976-9.032,13.808-8.888,22.032
		c0.072,4.336-1.552,8.424-4.584,11.504c-3.04,3.088-7.088,4.784-11.416,4.784h-72c-8.64,0-17.064,3.528-23.112,9.68
		c-5.872,5.976-9.032,13.808-8.888,22.032c0.072,4.336-1.552,8.424-4.584,11.504c-3.04,3.088-7.088,4.784-11.416,4.784h-6.64
		c-17.792,0-32.432,13.304-33.32,30.296c-0.464,8.872,2.648,17.304,8.752,23.736c6.016,6.336,14.472,9.968,23.208,9.968h334.64
		c17.792,0,32.432-13.304,33.32-30.296c0.464-8.872-2.648-17.304-8.752-23.736c-6.016-6.336-14.472-9.968-23.208-9.968h-22.64
		c-9.128,0-16.896-6.792-17.336-15.128c-0.232-4.456,1.32-8.672,4.376-11.888c3.056-3.208,7.168-4.984,11.6-4.984h72
		c8.736,0,17.192-3.632,23.208-9.968c6.104-6.432,9.208-14.856,8.752-23.744c-0.888-16.984-15.528-30.288-33.32-30.288H440
		c-4.416,0-8-3.584-8-8v-96.64C432,226.69,436.368,224.082,440.488,224.002z M472,48.002c4.416,0,8,3.584,8,8v48
		c0,4.416-3.584,8-8,8h-8v-64H472z M24,88.002c-4.416,0-8-3.584-8-8s3.584-8,8-8h296v16H24z M344,112.002c-4.416,0-8-3.584-8-8v-48
		c0-4.416,3.584-8,8-8h8v64H344z M368,128.002v-96h16v96H368z M440,352.002h22.64c9.128,0,16.896,6.792,17.336,15.128
		c0.232,4.456-1.32,8.672-4.376,11.888c-3.056,3.208-7.168,4.984-11.6,4.984h-72c-8.736,0-17.192,3.632-23.208,9.968
		c-6.104,6.432-9.208,14.856-8.752,23.744c0.888,16.984,15.528,30.288,33.32,30.288H416c4.432,0,8.544,1.776,11.6,4.984
		c3.056,3.216,4.608,7.44,4.376,11.88c-0.44,8.344-8.208,15.136-17.336,15.136H80c-4.432,0-8.544-1.776-11.6-4.984
		c-3.056-3.216-4.608-7.44-4.376-11.88c0.44-8.344,8.208-15.136,17.336-15.136H88c8.648,0,16.752-3.4,22.816-9.56
		c6.064-6.168,9.328-14.336,9.184-23c-0.072-3.904,1.464-7.648,4.296-10.536c3.064-3.12,7.328-4.904,11.704-4.904h72
		c8.648,0,16.752-3.4,22.816-9.56c6.064-6.168,9.328-14.336,9.184-23c-0.072-3.904,1.464-7.648,4.296-10.536
		c3.064-3.12,7.328-4.904,11.704-4.904h88c13.232,0,24-10.768,24-24v-48c0-4.416,3.584-8,8-8c13.232,0,24-10.768,24-24v-96v-8v-128
		h16v96h16v-80h16v96v8v64c0,4.32-3.52,7.912-7.832,8c-13.552,0.264-24.168,10.52-24.168,23.36v96.64
		C416,341.234,426.768,352.002,440,352.002z"/>
	<rect x="416" y="128.002" style="fill:#333333;" width="16" height="16"/>
</g>
<g>
</g>
<g>
</g>
<g>
</g>
<g>
</g>
<g>
</g>
<g>
</g>
<g>
</g>
<g>
</g>
<g>
</g>
<g>
</g>
<g>
</g>
<g>
</g>
<g>
</g>
<g>
</g>
<g>
</g>
</svg>
