<?xml version="1.0" encoding="iso-8859-1"?>
<!-- Generator: Adobe Illustrator 19.0.0, SVG Export Plug-In . SVG Version: 6.00 Build 0)  -->
<svg version="1.1" id="Capa_1" xmlns="http://www.w3.org/2000/svg" xmlns:xlink="http://www.w3.org/1999/xlink" x="0px" y="0px"
	 viewBox="0 0 496.025 496.025" style="enable-background:new 0 0 496.025 496.025;" xml:space="preserve">
<g>
	<rect x="256.025" y="248.013" style="fill:#333333;" width="16" height="48"/>
	<path style="fill:#333333;" d="M408.025,384.013c-37.064,0-69.576,19.552-88,48.832V248.013h-16v232h-32v-168h-16v120.832
		c-18.424-29.28-50.936-48.832-88-48.832h-88v8c0,57.344,46.656,104,104,104h72h16h32h16h72c57.344,0,104-46.656,104-104v-8H408.025
		z M184.025,480.013c-45.832,0-83.584-35.208-87.64-80h71.64c45.832,0,83.584,35.208,87.64,80H184.025z M392.025,480.013h-71.64
		c4.056-44.792,41.808-80,87.64-80h71.64C475.609,444.805,437.857,480.013,392.025,480.013z"/>
</g>
<path style="fill:#FFA64D;" d="M352.025,88.013l-64-40l-58.296,35.872c-1.56,3.912-3.912,7.584-7.08,10.752
	c-6.912,6.912-16.192,9.856-25.224,9.128l-0.696,0.424c0.376,16.168-8.456,36.144-24.992,52.672
	c-3.152,3.152-6.424,6.016-9.776,8.608l0,0c10.232,60.456,62.696,106.544,126.064,106.544c70.688,0,128-57.304,128-128v-96
	L352.025,88.013z"/>
<path style="fill:#333333;" d="M264.025,32.013v-16c-17.112,0-32.776,8.368-42.408,22.384c-6.392-4.12-13.808-6.384-21.592-6.384
	c0-17.648-14.352-32-32-32v16c8.816,0,16,7.176,16,16v3.392c-4.512,1.976-8.696,4.736-12.28,8.328
	c-6.512,6.504-10.312,14.912-11.296,23.944c-7.016,0.848-14.224,2.952-21.352,6.184c2.856-15.304,3.096-37.048-12.608-52.752
	c-7.768-7.768-17.064-11.224-26.792-10.024c-20.688,2.544-38.16,25.168-45.024,35.304c-13.416-0.256-25.208,4.672-35.248,14.808
	C1.969,78.813-4.103,96.637,2.761,110.101c6.68,13.112,23.728,19.624,51.736,19.616c9.624,0,20.568-0.776,32.8-2.312
	c-1.536,3.784-2.76,7.584-3.632,11.376c-3.856,16.672-0.696,31.136,8.88,40.704c6.912,6.912,16.368,10.48,27.376,10.48
	c4.232,0,8.696-0.528,13.328-1.6c15.336-3.528,31.008-12.72,44.152-25.848c15.16-15.16,24.88-33.92,26.928-50.928
	c9.04-0.968,17.464-4.776,23.976-11.296c7.552-7.544,11.72-17.592,11.72-28.28c0-8.064-2.384-15.752-6.792-22.288l0.728-1.152
	C240.521,38.205,251.753,32.013,264.025,32.013z M188.457,110.125c-1.008,8.104-4.432,16.856-9.792,25.328
	c-8.176-4.488-16.336-10.624-23.896-18.184c-7.552-7.56-13.696-15.72-18.192-23.904c8.464-5.344,17.24-8.784,25.336-9.8
	c1.88,6.232,5.104,12,9.832,16.728C176.473,105.021,182.233,108.237,188.457,110.125z M101.649,26.949
	c4.872-0.584,9.2,1.136,13.52,5.464c15.232,15.24,8.144,41.4,5.104,50.312c-9.248-9.576-27.448-26.096-48.144-33.08
	C79.553,40.117,91.049,28.253,101.649,26.949z M96.593,109.965c-65.344,10.024-77.44-2.912-79.584-7.128
	c-3.368-6.608,2.04-18.528,13.784-30.376c7.136-7.208,15.128-10.52,24.344-10.112c21.976,0.976,44.688,22.136,54.376,32.288
	c-4.864,4.872-9.184,10.096-12.88,15.52L96.593,109.965z M129.657,172.789c-11.128,2.552-20.264,0.92-25.8-4.608
	s-7.168-14.696-4.608-25.8c0.944-4.096,2.584-8.224,4.512-12.336c4.712,7.32,10.384,14.496,17.064,21.168
	c6.696,6.696,13.864,12.36,21.176,17.064C137.889,170.205,133.753,171.837,129.657,172.789z M157.497,158.829
	c-8.632-4.536-17.456-11.032-25.352-18.928c-7.992-7.992-14.392-16.68-18.928-25.352c2.312-2.96,4.864-5.832,7.616-8.592
	c0.944-0.944,1.936-1.792,2.904-2.688c5.096,8.752,11.776,17.368,19.72,25.32c7.952,7.944,16.568,14.624,25.312,19.712
	c-0.896,0.968-1.736,1.968-2.68,2.912C163.329,153.965,160.449,156.509,157.497,158.829z M216.993,88.981
	c-9.064,9.064-24.872,9.064-33.936,0c-4.536-4.528-7.032-10.552-7.032-16.968s2.496-12.44,7.032-16.968s10.552-7.032,16.968-7.032
	s12.44,2.496,16.968,7.032s7.032,10.552,7.032,16.968S221.529,84.453,216.993,88.981z"/>
<g>
</g>
<g>
</g>
<g>
</g>
<g>
</g>
<g>
</g>
<g>
</g>
<g>
</g>
<g>
</g>
<g>
</g>
<g>
</g>
<g>
</g>
<g>
</g>
<g>
</g>
<g>
</g>
<g>
</g>
</svg>
