<?xml version="1.0" encoding="iso-8859-1"?>
<!-- Generator: Adobe Illustrator 19.0.0, SVG Export Plug-In . SVG Version: 6.00 Build 0)  -->
<svg version="1.1" id="Capa_1" xmlns="http://www.w3.org/2000/svg" xmlns:xlink="http://www.w3.org/1999/xlink" x="0px" y="0px"
	 viewBox="0 0 496 496" style="enable-background:new 0 0 496 496;" xml:space="preserve">
<g>
	<path style="fill:#FFA64D;" d="M248,216c0-35.272-28.528-63.864-63.768-63.992C190.48,143.504,192,136,192,136v-16H64v16
		c0,0,1.52,7.504,7.768,16.008C36.528,152.136,8,180.728,8,216v72h48v168h144V288h48V216z"/>
	<path style="fill:#FFA64D;" d="M189.904,56C182.784,28.408,157.808,8,128,8S73.216,28.408,66.096,56H189.904z"/>
	<path style="fill:#FFA64D;" d="M448,288H320v-64h128V288z"/>
</g>
<g>
	<path style="fill:#333333;" d="M197.16,145.264c1.984-4.496,2.656-7.576,2.68-7.688L200,72c0-2.704-0.176-5.368-0.472-8H216V48
		h-20.2C185.888,20.08,159.28,0,128,0S70.112,20.08,60.2,48H40v16h16.472C56.176,66.632,56,69.296,56,72v64l0.152,1.568
		c0.024,0.12,0.696,3.192,2.688,7.688C25.408,151.472,0,180.8,0,216v80c0,26.472,21.528,48,48,48v152h160V344
		c26.472,0,48-21.528,48-48v-80C256,180.8,230.592,151.472,197.16,145.264z M128,168c-45.2,0-54.728-28.216-56-32.944V128h112v7.048
		C182.672,139.92,173.08,168,128,168z M128,16c22.28,0,41.504,13.112,50.52,32H77.48C86.496,29.112,105.72,16,128,16z M183.36,64
		c0.376,2.624,0.64,5.28,0.64,8v40H72V72c0-2.72,0.264-5.376,0.64-8H183.36z M16,296h32v32C30.352,328,16,313.648,16,296z M64,480
		v-16h56v16H64z M136,480v-16h56v16H136z M208,328v-32h32C240,313.648,225.648,328,208,328z M240,280h-32v-80h-16v248h-56v-88h-16
		v88H64V200H48v80H16v-64c0-29.624,23.152-53.896,52.296-55.816c9.2,10.752,25.056,21.576,51.704,23.44V296h16V183.624
		c26.64-1.856,42.504-12.68,51.704-23.44C216.848,162.104,240,186.376,240,216V280z"/>
	<path style="fill:#333333;" d="M496,153.632l-112-25.848l-112,25.848V208h16v176h16v112h16V384h128v112h16V384h16V208h16V153.632z
		 M480,192h-32v16h16v160H304V208h128v-16H288v-25.632l96-22.16l96,22.16V192z"/>
	<rect x="432" y="304" style="fill:#333333;" width="16" height="16"/>
	<rect x="352" y="304" style="fill:#333333;" width="64" height="16"/>
	<rect x="320" y="304" style="fill:#333333;" width="16" height="16"/>
</g>
<g>
</g>
<g>
</g>
<g>
</g>
<g>
</g>
<g>
</g>
<g>
</g>
<g>
</g>
<g>
</g>
<g>
</g>
<g>
</g>
<g>
</g>
<g>
</g>
<g>
</g>
<g>
</g>
<g>
</g>
</svg>
