<?xml version="1.0" encoding="iso-8859-1"?>
<!-- Generator: Adobe Illustrator 19.0.0, SVG Export Plug-In . SVG Version: 6.00 Build 0)  -->
<svg version="1.1" id="Capa_1" xmlns="http://www.w3.org/2000/svg" xmlns:xlink="http://www.w3.org/1999/xlink" x="0px" y="0px"
	 viewBox="0 0 497.336 497.336" style="enable-background:new 0 0 497.336 497.336;" xml:space="preserve">
<g>
	<polygon style="fill:#FFA64D;" points="373.584,144.668 339.992,88.668 373.584,32.668 426.416,32.668 460.008,88.668 
		426.416,144.668 	"/>
	<polygon style="fill:#FFA64D;" points="373.584,304.668 339.992,248.668 373.584,192.668 426.416,192.668 460.008,248.668 
		426.416,304.668 	"/>
	<polygon style="fill:#FFA64D;" points="245.584,224.668 211.992,168.668 245.584,112.668 298.416,112.668 332.008,168.668 
		298.416,224.668 	"/>
</g>
<g>
	<path style="fill:#333333;" d="M497.328,88.668l-52.8-88h-89.056l-48,80h-80l-52.8,88l52.8,88h80l48,80h89.064l52.8-88l-48-80
		L497.328,88.668z M193.328,168.668l43.2-72h70.936l43.2,72l-43.2,72h-70.936L193.328,168.668z M435.472,320.668h-70.936l-43.2-72
		l43.2-72H408v-16h-43.472l-43.2-72l43.2-72h70.936l43.2,72l-43.2,72H424v16h11.472l43.2,72L435.472,320.668z"/>
	<polygon style="fill:#333333;" points="443.816,92.788 457.536,84.548 426.416,32.668 378.12,32.668 378.12,48.668 417.352,48.668 
			"/>
	<polygon style="fill:#333333;" points="300.744,116.548 287.024,124.788 313.352,168.668 289.352,208.668 250.12,208.668 
		250.12,224.668 298.416,224.668 332.008,168.668 	"/>
	<polygon style="fill:#333333;" points="417.352,288.668 378.12,288.668 378.12,304.668 426.416,304.668 457.536,252.788 
		443.816,244.548 	"/>
	<path style="fill:#333333;" d="M88,168.668v-32H72v32H24c-13.232,0-24,10.768-24,24v112c0,10.416,6.712,19.216,16,22.528v169.472
		h128v-320h-38.24C101.36,171.796,95.064,168.668,88,168.668z M16,192.668c0-4.416,3.584-8,8-8h48h16c4.416,0,8,3.584,8,8v72
		c0,4.416-3.584,8-8,8s-8-3.584-8-8v-8c0-13.232-10.768-24-24-24s-24,10.768-24,24v48c0,4.416-3.584,8-8,8s-8-3.584-8-8V192.668z
		 M128,192.668v288H32V327.196c9.288-3.312,16-12.112,16-22.528v-48c0-4.416,3.584-8,8-8s8,3.584,8,8v8c0,13.232,10.768,24,24,24
		s24-10.768,24-24v-72H128z"/>
	<path style="fill:#333333;" d="M280.968,406.468c0.368-1.912,0.624-3.848,0.624-5.8c0-10.64-5.512-20.008-13.888-25.832
		l12.416-17.552l-13.064-9.232l-14.864,21.008c-1.352-0.16-2.68-0.392-4.072-0.392s-2.712,0.232-4.064,0.392l-14.872-21.016
		l-13.064,9.248l12.416,17.544c-8.376,5.824-13.888,15.192-13.888,25.832c0,1.936,0.248,3.848,0.608,5.744
		c-9.368,2.656-19.104,8.016-27.744,16.16C175.296,434.076,168,448.412,168,460.908c0,7.512,2.592,13.92,7.504,18.544
		c4.888,4.616,11.536,6.832,18.984,6.832c8.456,0,17.936-2.92,27.04-8.36c6.2,11.704,15.848,18.744,26.592,18.744
		c10.792,0,20.368-6.976,26.552-18.624c9.048,5.368,18.44,8.24,26.84,8.24c7.448,0,14.096-2.208,18.984-6.832
		c4.912-4.616,7.504-11.032,7.504-18.544c0-12.496-7.296-26.832-19.52-38.344C299.92,414.492,290.264,409.148,280.968,406.468z
		 M265.584,400.668c0,1.416-0.216,2.792-0.6,4.128c-5.992,0.608-11.4,2.592-15.488,6.448c-0.568,0.528-0.992,1.168-1.496,1.744
		c-0.504-0.576-0.928-1.216-1.496-1.744c-4.04-3.808-9.352-5.784-15.248-6.424c-0.392-1.336-0.608-2.728-0.608-4.152
		c0-8.824,7.832-16,17.464-16C257.752,384.668,265.584,391.844,265.584,400.668z M186.48,467.82c-1.648-1.56-2.48-3.88-2.48-6.912
		c0-6.312,3.808-16.64,14.48-26.704c9.832-9.256,21.16-13.832,29.096-13.832c3.408,0,6.184,0.832,7.96,2.504
		c1.64,1.552,2.48,3.88,2.48,6.912c0,8.056-5.552,18.28-14.488,26.704C209.496,469.74,192.392,473.396,186.48,467.82z
		 M248.12,480.668c-5.128,0-10.264-4.8-13.64-12.504c0.008-0.008,0.016-0.016,0.024-0.016c5.648-5.32,10.192-11.256,13.504-17.328
		c3.312,6.072,7.848,12,13.504,17.328c0.056,0.048,0.112,0.096,0.16,0.144C258.296,475.828,253.184,480.668,248.12,480.668z
		 M309.52,467.82c-5.92,5.576-23.008,1.92-37.056-11.312c-8.928-8.424-14.488-18.648-14.488-26.704c0-3.032,0.832-5.36,2.48-6.912
		c1.776-1.672,4.552-2.504,7.96-2.504c7.936,0,19.264,4.568,29.096,13.832C308.192,444.268,312,454.596,312,460.908
		C312,463.94,311.168,466.26,309.52,467.82z"/>
</g>
<path style="fill:#FFA64D;" d="M83.52,144.668H71.6c-26.248,0-47.6-21.352-47.6-47.6c0-12.712,4.952-24.664,13.944-33.656
	l12.888-12.888C59.328,42.028,64,30.748,64,18.74c0-9.96,8.112-18.072,18.072-18.072c6.56,0,12.616,3.56,15.8,9.296L129.4,66.708
	c4.32,7.792,6.6,16.6,6.6,25.48C136,121.132,112.464,144.668,83.52,144.668z"/>
<g>
</g>
<g>
</g>
<g>
</g>
<g>
</g>
<g>
</g>
<g>
</g>
<g>
</g>
<g>
</g>
<g>
</g>
<g>
</g>
<g>
</g>
<g>
</g>
<g>
</g>
<g>
</g>
<g>
</g>
</svg>
