<?xml version="1.0" encoding="iso-8859-1"?>
<!-- Generator: Adobe Illustrator 19.0.0, SVG Export Plug-In . SVG Version: 6.00 Build 0)  -->
<svg version="1.1" id="Capa_1" xmlns="http://www.w3.org/2000/svg" xmlns:xlink="http://www.w3.org/1999/xlink" x="0px" y="0px"
	 viewBox="0 0 495.962 495.962" style="enable-background:new 0 0 495.962 495.962;" xml:space="preserve">
<path style="fill:#FFA64D;" d="M71.962,167.959L60.89,201.183c-3.264,9.784-4.928,20.032-4.928,30.352v0.424
	c0,53.016,42.984,96,96,96s96-42.984,96-96v-0.424c0-10.32-1.664-20.568-4.928-30.36
	C174.106,202.399,151.962,167.959,71.962,167.959L71.962,167.959z"/>
<g>
	<path style="fill:#333333;" d="M221.73,111.959h-68.432c12.904-29.64,6.72-65.088-16.76-88.568
		c-31.184-31.184-81.952-31.184-113.144,0c-31.192,31.192-31.192,81.944,0,113.144c11.912,11.904,26.928,19.512,43.2,22.24
		l-13.288,39.872c-3.544,10.624-5.344,21.688-5.344,33.312c0,49.072,34.208,90.216,80,101.096v114.904h-8c-17.648,0-32,14.352-32,32
		c0,8.816,7.176,16,16,16h96c8.816,0,16-7.184,16-16c0-17.648-14.352-32-32-32h-8V333.047c45.792-10.888,80-52.08,80-101.512
		c0-11.2-1.8-22.264-5.344-32.888L221.73,111.959z M34.706,125.215c-24.952-24.952-24.952-65.56,0-90.512s65.56-24.952,90.512,0
		c20.52,20.512,24.488,52.432,10.128,77.256h-19.504l3.72-3.72l-20.288-20.28h28.688v-16H99.274l20.28-20.28l-11.312-11.312
		l-20.28,20.28V31.959h-16v28.688l-20.28-20.28L40.37,51.679l20.28,20.28H31.962v16H60.65l-20.28,20.28l11.312,11.312l20.28-20.28
		v28.688h4.904l-5.136,15.416C57.762,141.583,44.834,135.335,34.706,125.215z M87.962,99.271l12.688,12.688H87.962V99.271z
		 M199.978,479.959h-96.016c0-8.824,7.176-16,16-16h64C192.778,463.959,199.962,471.135,199.978,479.959z M159.962,447.959h-16
		V335.551c2.648,0.208,5.296,0.408,8,0.408s5.352-0.2,8-0.408V447.959z M151.962,319.959c-48.52,0-88-39.48-88-88.424
		c0-9.48,1.52-18.84,4.52-27.824l25.248-75.752h116.472l25.248,75.752c2.992,8.984,4.512,18.352,4.512,28.248
		C239.962,280.479,200.482,319.959,151.962,319.959z"/>
	<path style="fill:#333333;" d="M111.962,199.959c-13.232,0-24,10.768-24,24s10.768,24,24,24s24-10.768,24-24
		S125.194,199.959,111.962,199.959z M111.962,231.959c-4.416,0-8-3.584-8-8s3.584-8,8-8s8,3.584,8,8
		S116.378,231.959,111.962,231.959z"/>
	<path style="fill:#333333;" d="M175.962,247.959c-13.232,0-24,10.768-24,24s10.768,24,24,24s24-10.768,24-24
		S189.194,247.959,175.962,247.959z M175.962,279.959c-4.416,0-8-3.584-8-8s3.584-8,8-8s8,3.584,8,8
		S180.378,279.959,175.962,279.959z"/>
	<path style="fill:#333333;" d="M476.442,245.855c-8.568-8.08-18.224-13.424-27.52-16.104c0.368-1.912,0.616-3.84,0.616-5.8
		c0-10.64-5.512-20.008-13.888-25.832l12.416-17.552l-13.064-9.232l-14.864,21.008c-1.336-0.152-2.664-0.384-4.056-0.384
		s-2.712,0.232-4.064,0.392l-14.872-21.016l-13.064,9.248l12.416,17.544c-8.376,5.824-13.888,15.192-13.888,25.832
		c0,1.936,0.248,3.848,0.608,5.736c-9.368,2.656-19.104,8.016-27.744,16.168c-12.216,11.504-19.512,25.84-19.512,38.336
		c0,7.512,2.592,13.92,7.504,18.544c4.888,4.616,11.536,6.832,18.984,6.832c8.464,0,17.936-2.92,27.04-8.36
		c6.2,11.704,15.848,18.744,26.592,18.744c10.792,0,20.368-6.976,26.552-18.624c9.048,5.368,18.44,8.24,26.84,8.24
		c7.448,0,14.096-2.208,18.984-6.832c4.912-4.616,7.504-11.032,7.504-18.544C495.962,271.703,488.666,257.367,476.442,245.855z
		 M433.546,223.959c0,1.416-0.216,2.792-0.6,4.12c-5.992,0.608-11.4,2.6-15.496,6.456c-0.568,0.528-0.992,1.168-1.488,1.744
		c-0.504-0.576-0.928-1.216-1.496-1.744c-4.04-3.808-9.352-5.792-15.248-6.432c-0.392-1.336-0.608-2.72-0.608-4.144
		c0-8.824,7.832-16,17.464-16C425.714,207.959,433.546,215.135,433.546,223.959z M354.442,291.111c-1.648-1.56-2.48-3.88-2.48-6.912
		c0-6.312,3.808-16.64,14.48-26.704c9.832-9.256,21.16-13.832,29.096-13.832c3.408,0,6.184,0.832,7.96,2.504
		c1.64,1.552,2.48,3.88,2.48,6.912c0,8.056-5.552,18.28-14.488,26.704C377.442,293.031,360.354,296.679,354.442,291.111z
		 M416.082,303.959c-5.128,0-10.264-4.8-13.64-12.504c0.008-0.008,0.016-0.016,0.024-0.016c5.648-5.32,10.192-11.256,13.504-17.328
		c3.312,6.072,7.848,12,13.504,17.328c0.056,0.048,0.112,0.096,0.16,0.144C426.258,299.119,421.146,303.959,416.082,303.959z
		 M477.482,291.111c-5.92,5.568-23.008,1.92-37.056-11.312c-8.928-8.424-14.488-18.648-14.488-26.704c0-3.032,0.832-5.36,2.48-6.912
		c1.776-1.672,4.552-2.504,7.96-2.504c7.936,0,19.264,4.568,29.096,13.832c10.68,10.048,14.488,20.376,14.488,26.688
		C479.962,287.231,479.13,289.551,477.482,291.111z"/>
	<path style="fill:#333333;" d="M354.626,133.335c9.048,5.368,18.44,8.24,26.84,8.24c7.448,0,14.096-2.208,18.984-6.832
		c4.92-4.616,7.512-11.032,7.512-18.544c0-12.496-7.296-26.832-19.52-38.344c-8.568-8.072-18.224-13.416-27.52-16.096
		c0.368-1.912,0.624-3.84,0.624-5.8c0-10.64-5.512-20.008-13.888-25.832l12.416-17.552L347.01,3.343l-14.864,21.008
		c-1.344-0.16-2.672-0.392-4.064-0.392s-2.712,0.232-4.064,0.392L309.146,3.335l-13.064,9.248l12.416,17.544
		c-8.376,5.824-13.888,15.192-13.888,25.832c0,1.936,0.248,3.848,0.608,5.736c-9.368,2.656-19.104,8.024-27.744,16.16
		c-12.216,11.512-19.512,25.848-19.512,38.344c0,7.512,2.592,13.92,7.504,18.544c4.888,4.616,11.536,6.832,18.984,6.832
		c8.464,0,17.936-2.92,27.04-8.36c6.2,11.704,15.848,18.744,26.592,18.744C338.874,151.959,348.442,144.983,354.626,133.335z
		 M391.962,116.199c0,3.032-0.832,5.352-2.48,6.904c-5.928,5.568-23.008,1.92-37.056-11.312
		c-8.928-8.424-14.488-18.648-14.488-26.704c0-3.032,0.832-5.36,2.48-6.912c1.776-1.672,4.552-2.504,7.96-2.504
		c7.936,0,19.264,4.568,29.096,13.832C388.154,99.559,391.962,109.887,391.962,116.199z M345.546,55.959
		c0,1.416-0.216,2.792-0.6,4.12c-5.992,0.608-11.4,2.6-15.496,6.456c-0.56,0.536-0.984,1.168-1.488,1.744
		c-0.504-0.576-0.928-1.216-1.496-1.744c-4.04-3.808-9.352-5.792-15.248-6.432c-0.392-1.336-0.608-2.72-0.608-4.144
		c0-8.824,7.832-16,17.464-16C337.714,39.959,345.546,47.135,345.546,55.959z M266.442,123.111c-1.648-1.56-2.48-3.88-2.48-6.912
		c0-6.312,3.808-16.64,14.48-26.704c9.832-9.256,21.16-13.832,29.096-13.832c3.408,0,6.184,0.832,7.96,2.504
		c1.64,1.552,2.48,3.88,2.48,6.912c0,8.056-5.552,18.28-14.488,26.704C289.442,125.031,272.346,128.679,266.442,123.111z
		 M328.082,135.959c-5.128,0-10.264-4.8-13.64-12.504c0.008-0.008,0.016-0.016,0.024-0.016c5.648-5.32,10.192-11.256,13.504-17.328
		c3.312,6.072,7.848,12,13.504,17.328c0.056,0.048,0.112,0.096,0.16,0.144C338.258,131.119,333.146,135.959,328.082,135.959z"/>
</g>
<g>
</g>
<g>
</g>
<g>
</g>
<g>
</g>
<g>
</g>
<g>
</g>
<g>
</g>
<g>
</g>
<g>
</g>
<g>
</g>
<g>
</g>
<g>
</g>
<g>
</g>
<g>
</g>
<g>
</g>
</svg>
