<?xml version="1.0" encoding="iso-8859-1"?>
<!-- Generator: Adobe Illustrator 19.0.0, SVG Export Plug-In . SVG Version: 6.00 Build 0)  -->
<svg version="1.1" id="Capa_1" xmlns="http://www.w3.org/2000/svg" xmlns:xlink="http://www.w3.org/1999/xlink" x="0px" y="0px"
	 viewBox="0 0 496 496" style="enable-background:new 0 0 496 496;" xml:space="preserve">
<g>
	<polygon style="fill:#FFA64D;" points="456,101.656 480,77.656 416,13.656 392,37.656 368,13.656 344,37.656 328,21.656 
		304,45.656 320,61.656 296,85.656 320,109.656 296,133.656 360,197.656 384,173.656 408,197.656 432,173.656 448,189.656 
		472,165.656 456,149.656 480,125.656 	"/>
	<polygon style="fill:#FFA64D;" points="200,85.656 176,61.656 192,45.656 168,21.656 152,37.656 128,13.656 104,37.656 80,13.656 
		16,77.656 40,101.656 16,125.656 40,149.656 24,165.656 48,189.656 64,173.656 88,197.656 112,173.656 136,197.656 200,133.656 
		176,109.656 	"/>
</g>
<path style="fill:#333333;" d="M488.688,451.032L283.312,245.656L340,188.968l20,20l24-24l24,24l24-24l16,16l35.312-35.312l-16-16
	l24-24l-24-24l24-24L416,2.344l-24,24l-24-24l-24,24l-16-16l-35.312,35.312l16,16l-24,24l24,24l-24,24l20,20L248,210.344
	l-56.688-56.688l20-20l-24-24l24-24l-24-24l16-16L168,10.344l-16,16l-24-24l-24,24l-24-24L4.688,77.656l24,24l-24,24l24,24l-16,16
	L48,200.968l16-16l24,24l24-24l24,24l20-20l56.688,56.688L7.312,451.032C2.664,455.68,0,462.112,0,468.688
	c0,13.768,11.2,24.968,24.968,24.968c6.576,0,13.008-2.664,17.656-7.312L248,280.968l205.376,205.376
	c4.648,4.648,11.08,7.312,17.656,7.312c13.768,0,24.968-11.2,24.968-24.968C496,462.112,493.336,455.68,488.688,451.032z
	 M416,24.968l52.688,52.688L456,90.344l-52.688-52.688L416,24.968z M328,32.968l28.016,28.016l11.312-11.312l-12.016-12.016
	L368,24.968l100.688,100.688L456,138.344l-76.336-76.336L368.352,73.32l92.336,92.336L448,178.344L315.312,45.656L328,32.968z
	 M320,120.968l32.96,32.96l11.312-11.312l-56.96-56.96L320,72.968l100.688,100.688L408,186.344l-35.056-35.056L361.632,162.6
	l11.056,11.056L360,186.344l-52.688-52.688L320,120.968z M27.312,77.656L80,24.968l12.688,12.688L40,90.344L27.312,77.656z
	 M27.312,125.656L128,24.968l12.688,12.688L40,138.344L27.312,125.656z M75.312,173.656l10.344-10.344L74.344,152L48,178.344
	l-12.688-12.688L168,32.968l12.688,12.688l-94.696,94.696l11.312,11.312L176,72.968l12.688,12.688L88,186.344L75.312,173.656z
	 M123.312,173.656L176,120.968l12.688,12.688L136,186.344L123.312,173.656z M167.312,177.656L180,164.968l56.688,56.688L224,234.344
	L167.312,177.656z M31.312,475.032c-1.672,1.672-3.984,2.624-6.344,2.624c-4.944,0-8.968-4.024-8.968-8.968
	c0-2.36,0.952-4.672,2.624-6.344L316,164.968l12.688,12.688L31.312,475.032z M471.032,477.656c-2.36,0-4.672-0.952-6.344-2.624
	L259.312,269.656L272,256.968l205.376,205.376c1.672,1.672,2.624,3.984,2.624,6.344C480,473.632,475.976,477.656,471.032,477.656z"
	/>
<g>
</g>
<g>
</g>
<g>
</g>
<g>
</g>
<g>
</g>
<g>
</g>
<g>
</g>
<g>
</g>
<g>
</g>
<g>
</g>
<g>
</g>
<g>
</g>
<g>
</g>
<g>
</g>
<g>
</g>
</svg>
