<?xml version="1.0" encoding="iso-8859-1"?>
<!-- Generator: Adobe Illustrator 19.0.0, SVG Export Plug-In . SVG Version: 6.00 Build 0)  -->
<svg version="1.1" id="Capa_1" xmlns="http://www.w3.org/2000/svg" xmlns:xlink="http://www.w3.org/1999/xlink" x="0px" y="0px"
	 viewBox="0 0 496 496" style="enable-background:new 0 0 496 496;" xml:space="preserve">
<g>
	<path style="fill:#FFA64D;" d="M348.992,248.968c-7.472-7.04-6.296-20.224,1.784-32.968H176c-8.84,0-16,7.16-16,16v16h96
		c8.84,0,16,7.16,16,16v40c0,8.84,7.16,16,16,16s16-7.16,16-16v-16c0-8.84,7.16-16,16-16s16,7.16,16,16v16v16v32
		c0,8.84,7.16,16,16,16s16-7.16,16-16v-98.32l-0.248-0.584C360.192,254.312,353.424,253.144,348.992,248.968z"/>
	<path style="fill:#FFA64D;" d="M176,8h-48c-17.672,0-32,14.328-32,32v104c0,8.84,7.16,16,16,16s16-7.16,16-16V96
		c0-8.84,7.16-16,16-16s16,7.16,16,16v72c0,8.84,7.16,16,16,16s16-7.16,16-16v-16v-16V24C192,15.16,184.84,8,176,8z"/>
</g>
<g>
	<path style="fill:#333333;" d="M448.968,181.8c0.368-1.912,0.624-3.84,0.624-5.8c0-10.64-5.512-20.008-13.888-25.832l12.416-17.552
		l-13.064-9.232l-14.864,21.008c-1.352-0.16-2.68-0.392-4.072-0.392s-2.712,0.232-4.064,0.392l-14.872-21.016l-13.064,9.248
		l12.416,17.544c-8.376,5.824-13.888,15.192-13.888,25.832c0,1.936,0.248,3.848,0.608,5.736c-9.368,2.656-19.112,8.024-27.744,16.16
		c-3.376,3.184-6.336,6.584-8.912,10.104H176c-13.232,0-24,10.768-24,24v8H56c-13.232,0-24,10.768-24,24v16
		c0,6.168,2.408,11.744,6.24,16c-3.832,4.256-6.24,9.832-6.24,16v16c0,6.168,2.408,11.744,6.24,16c-3.832,4.256-6.24,9.832-6.24,16
		v16c0,2.816,0.576,5.488,1.472,8H24c-13.232,0-24,10.768-24,24s10.768,24,24,24h2.688c16.832,38.48,55.344,64,97.664,64h151.296
		c42.312,0,80.824-25.52,97.664-64H376c13.232,0,24-10.768,24-24s-10.768-24-24-24h-9.472c0.896-2.512,1.472-5.184,1.472-8v-6.24
		c4.872-4.392,8-10.696,8-17.76v-92.616c4.496-1.392,9.048-3.448,13.528-6.128C395.728,264.96,405.376,272,416.12,272
		c10.792,0,20.368-6.976,26.552-18.624c9.048,5.368,18.44,8.24,26.84,8.24c7.448,0,14.096-2.208,18.984-6.832
		c4.912-4.616,7.504-11.032,7.504-18.544c0-12.496-7.296-26.832-19.52-38.344C467.92,189.824,458.264,184.48,448.968,181.8z
		 M433.584,176c0,1.416-0.216,2.792-0.6,4.12c-5.992,0.608-11.4,2.592-15.496,6.456c-0.568,0.528-0.992,1.168-1.496,1.744
		c-0.504-0.576-0.928-1.216-1.496-1.744c-4.04-3.808-9.352-5.792-15.248-6.432c-0.392-1.336-0.608-2.72-0.608-4.144
		c0-8.824,7.832-16,17.464-16C425.752,160,433.584,167.176,433.584,176z M366.48,209.536c9.832-9.256,21.16-13.832,29.096-13.832
		c3.408,0,6.184,0.832,7.96,2.504c1.64,1.552,2.48,3.88,2.48,6.912c0,8.056-5.552,18.28-14.488,26.704
		c-14.048,13.232-31.144,16.888-37.056,11.312c-1.64-1.544-2.472-3.864-2.472-6.896C352,229.928,355.808,219.6,366.48,209.536z
		 M168,232c0-4.416,3.584-8,8-8h162.184c-1.384,4.168-2.184,8.296-2.184,12.24c0,7.512,2.592,13.92,7.504,18.544
		c4.328,4.088,10.08,6.184,16.496,6.64V352c0,4.416-3.584,8-8,8s-8-3.584-8-8v-32h-16v16H56c-4.416,0-8-3.584-8-8v-16
		c0-4.416,3.584-8,8-8h208c0,13.232,10.768,24,24,24s24-10.768,24-24v-16c0-4.416,3.584-8,8-8s8,3.584,8,8v16h16v-16
		c0-13.232-10.768-24-24-24s-24,10.768-24,24v16c0,4.416-3.584,8-8,8s-8-3.584-8-8v-40c0-13.232-10.768-24-24-24h-88V232z M48,264
		c0-4.416,3.584-8,8-8h96h8h96c4.416,0,8,3.584,8,8v24H56c-4.416,0-8-3.584-8-8V264z M275.648,480H124.352
		c-33.56,0-64.312-18.896-79.904-48h311.104C339.96,461.104,309.216,480,275.648,480z M384,408c0,4.416-3.584,8-8,8H24
		c-4.416,0-8-3.584-8-8s3.584-8,8-8h32h288h32C380.416,400,384,403.584,384,408z M344,384H56c-4.416,0-8-3.584-8-8v-16
		c0-4.416,3.584-8,8-8h272c0,13.232,10.768,24,24,24C352,380.416,348.416,384,344,384z M416.12,256
		c-5.128,0-10.264-4.8-13.64-12.504c0.008-0.008,0.016-0.016,0.024-0.016c5.648-5.32,10.192-11.256,13.504-17.328
		c3.312,6.072,7.848,12,13.504,17.328c0.056,0.048,0.112,0.096,0.16,0.144C426.296,251.16,421.184,256,416.12,256z M477.52,243.152
		c-5.92,5.576-23,1.92-37.056-11.312c-8.928-8.424-14.488-18.648-14.488-26.704c0-3.032,0.832-5.36,2.48-6.912
		c1.776-1.672,4.552-2.504,7.96-2.504c7.936,0,19.264,4.568,29.096,13.832C476.192,219.6,480,229.928,480,236.24
		C480,239.272,479.168,241.592,477.52,243.152z"/>
	<path style="fill:#333333;" d="M112,168c13.232,0,24-10.768,24-24v-24h16v48c0,13.232,10.768,24,24,24s24-10.768,24-24v-16h-16v16
		c0,4.416-3.584,8-8,8s-8-3.584-8-8V96c0-13.232-10.768-24-24-24s-24,10.768-24,24v48c0,4.416-3.584,8-8,8s-8-3.584-8-8V40
		c0-13.232,10.768-24,24-24h48c4.416,0,8,3.584,8,8v112h16v-16h8c11.064,0,20.312-7.56,23.072-17.76
		c2.768,1.112,5.768,1.76,8.928,1.76h8c10.416,0,19.216-6.712,22.528-16H472c13.232,0,24-10.768,24-24s-10.768-24-24-24H270.528
		c-3.312-9.288-12.112-16-22.528-16h-8c-3.16,0-6.16,0.648-8.928,1.76C228.312,15.56,219.064,8,208,8h-8
		c-1.92,0-3.792,0.296-5.632,0.736C189.96,3.448,183.408,0,176,0h-48c-22.056,0-40,17.944-40,40v104C88,157.232,98.768,168,112,168z
		 M144,88c4.416,0,8,3.584,8,8v8h-16v-8C136,91.584,139.584,88,144,88z M480,64c0,4.416-3.584,8-8,8H272V56h200
		C476.416,56,480,59.584,480,64z M240,40h8c4.416,0,8,3.584,8,8v32c0,4.416-3.584,8-8,8h-8c-4.416,0-8-3.584-8-8V48
		C232,43.584,235.584,40,240,40z M208,24c4.416,0,8,3.584,8,8v16v32v16c0,4.416-3.584,8-8,8h-8V24H208z"/>
</g>
<g>
</g>
<g>
</g>
<g>
</g>
<g>
</g>
<g>
</g>
<g>
</g>
<g>
</g>
<g>
</g>
<g>
</g>
<g>
</g>
<g>
</g>
<g>
</g>
<g>
</g>
<g>
</g>
<g>
</g>
</svg>
