<?xml version="1.0" encoding="iso-8859-1"?>
<!-- Generator: Adobe Illustrator 19.0.0, SVG Export Plug-In . SVG Version: 6.00 Build 0)  -->
<svg version="1.1" id="Capa_1" xmlns="http://www.w3.org/2000/svg" xmlns:xlink="http://www.w3.org/1999/xlink" x="0px" y="0px"
	 viewBox="0 0 496 496" style="enable-background:new 0 0 496 496;" xml:space="preserve">
<g>
	<rect x="32" y="264" style="fill:#FFA64D;" width="272" height="32"/>
	<rect x="32" y="168" style="fill:#FFA64D;" width="272" height="32"/>
	<path style="fill:#FFA64D;" d="M208,336h-80c-22.056,0-40,17.944-40,40v112h160V376C248,353.944,230.056,336,208,336z"/>
</g>
<g>
	<path style="fill:#333333;" d="M448,112h-56V64c8.816,0,16-7.184,16-16V32c0-8.824-7.184-16-16-16H280
		c-0.488,0-0.952,0.104-1.432,0.144C275.296,6.776,266.472,0,256,0h-32h-8h-96h-8H80C66.768,0,56,10.768,56,24v72h-8
		c-13.232,0-24,10.768-24,24v352c0,13.232,10.768,24,24,24h240c13.232,0,24-10.768,24-24V120c0-13.232-10.768-24-24-24h-8V64h64v96
		h40h8h56c13.232,0,24-10.768,24-24S461.232,112,448,112z M256,16c4.416,0,8,3.584,8,8v8h-32V16H256z M216,16v80h-96V16H216z M80,16
		h24v16H72v-8C72,19.584,75.584,16,80,16z M72,48h32v48H72V48z M40,192v-16h256v16H40z M296,208v48H40v-48H296z M288,480H48
		c-4.416,0-8-3.584-8-8V304h224v-16H40v-16h256v16h-16.008v16H296v168C296,476.416,292.416,480,288,480z M296,120v40H40v-40
		c0-4.416,3.584-8,8-8h240C292.416,112,296,115.584,296,120z M232,96V48h32v48H232z M280,32h112l0.016,16H280V32z M360,144V64h16v80
		H360z M448,144h-56v-16h56c4.416,0,8,3.584,8,8S452.416,144,448,144z"/>
	<path style="fill:#333333;" d="M168,368c-26.472,0-48,21.528-48,48s21.528,48,48,48s48-21.528,48-48S194.472,368,168,368z M168,448
		c-17.648,0-32-14.352-32-32s14.352-32,32-32s32,14.352,32,32S185.648,448,168,448z"/>
</g>
<g>
</g>
<g>
</g>
<g>
</g>
<g>
</g>
<g>
</g>
<g>
</g>
<g>
</g>
<g>
</g>
<g>
</g>
<g>
</g>
<g>
</g>
<g>
</g>
<g>
</g>
<g>
</g>
<g>
</g>
</svg>
