<?xml version="1.0" encoding="iso-8859-1"?>
<!-- Generator: Adobe Illustrator 19.0.0, SVG Export Plug-In . SVG Version: 6.00 Build 0)  -->
<svg version="1.1" id="Capa_1" xmlns="http://www.w3.org/2000/svg" xmlns:xlink="http://www.w3.org/1999/xlink" x="0px" y="0px"
	 viewBox="0 0 496 496" style="enable-background:new 0 0 496 496;" xml:space="preserve">
<g>
	<polygon style="fill:#FFA64D;" points="114.664,40 104,48 104,80 136,104 168,80 168,48 157.336,40 	"/>
	<polygon style="fill:#FFA64D;" points="296,80 328,104 328,136 296,160 264,136 264,104 	"/>
	<polygon style="fill:#FFA64D;" points="328,136 360,160 360,192 328,216 296,192 296,160 	"/>
	<polygon style="fill:#FFA64D;" points="104,192 136,216 136,248 104,272 72,248 72,216 	"/>
	<path style="fill:#FFA64D;" d="M201.024,496h-2.048C159.84,496,128,464.16,128,425.024c0-12.552,3.344-24.92,9.672-35.76
		l43.384-74.384C184.976,308.168,192.232,304,200,304s15.024,4.168,18.936,10.88l43.4,74.384c6.32,10.832,9.664,23.2,9.664,35.76
		C272,464.16,240.152,496,201.024,496z"/>
</g>
<g>
	<path style="fill:#333333;" d="M448.968,301.8c0.368-1.912,0.624-3.84,0.624-5.8c0-10.64-5.512-20.008-13.888-25.832l12.416-17.552
		l-13.064-9.232l-14.864,21.008c-1.352-0.16-2.68-0.392-4.072-0.392s-2.712,0.232-4.064,0.392l-14.872-21.016l-13.064,9.248
		l12.416,17.544c-8.376,5.824-13.888,15.192-13.888,25.832c0,1.936,0.248,3.848,0.608,5.736c-9.368,2.656-19.104,8.024-27.744,16.16
		C343.296,329.408,336,343.744,336,356.24c0,7.512,2.592,13.92,7.504,18.544c4.888,4.616,11.536,6.832,18.984,6.832
		c8.464,0,17.936-2.92,27.04-8.36C395.728,384.96,405.376,392,416.12,392c10.792,0,20.368-6.976,26.552-18.624
		c9.048,5.368,18.44,8.24,26.84,8.24c7.448,0,14.096-2.208,18.984-6.832c4.912-4.616,7.504-11.032,7.504-18.544
		c0-12.496-7.296-26.832-19.52-38.344C467.92,309.824,458.264,304.48,448.968,301.8z M433.584,296c0,1.416-0.216,2.792-0.6,4.12
		c-5.992,0.608-11.4,2.6-15.496,6.456c-0.568,0.528-0.992,1.168-1.488,1.744c-0.504-0.576-0.928-1.216-1.496-1.744
		c-4.04-3.808-9.352-5.792-15.248-6.432c-0.392-1.336-0.608-2.72-0.608-4.144c0-8.824,7.832-16,17.464-16
		C425.752,280,433.584,287.176,433.584,296z M354.48,363.152c-1.648-1.56-2.48-3.88-2.48-6.912c0-6.312,3.808-16.64,14.48-26.704
		c9.832-9.256,21.16-13.832,29.096-13.832c3.408,0,6.184,0.832,7.96,2.504c1.64,1.552,2.48,3.88,2.48,6.912
		c0,8.056-5.552,18.28-14.488,26.704C377.488,365.064,360.392,368.72,354.48,363.152z M416.12,376c-5.128,0-10.264-4.8-13.64-12.504
		c0.008-0.008,0.016-0.016,0.024-0.016c5.648-5.32,10.192-11.256,13.504-17.328c3.312,6.072,7.848,12,13.504,17.328
		c0.056,0.048,0.112,0.096,0.16,0.144C426.296,371.16,421.184,376,416.12,376z M477.52,363.152
		c-5.928,5.568-23.008,1.912-37.056-11.312c-8.928-8.424-14.488-18.648-14.488-26.704c0-3.032,0.832-5.36,2.48-6.912
		c1.776-1.672,4.552-2.504,7.96-2.504c7.936,0,19.264,4.568,29.096,13.832C476.192,339.6,480,349.928,480,356.24
		C480,359.272,479.168,361.592,477.52,363.152z"/>
	<path style="fill:#333333;" d="M0,0v48h32v28L0,100v40l32,24v32l32,24v32l40,30l32-24l32,24l32-24l32,24l32-24l32,24l40-30v-32
		l24-18l32,24l40-30v-32l13.376-10.032l12.184,9.288L491.2,118.4L397.336,48H496V0H0z M96,48v28L72,94L48,76V48H96z M360,150l-24-18
		v-24l24-18l24,18v24L360,150z M264,206l-24-18v-32l-32-24v-24l24-18l24,18v32l32,24v24L264,206z M200,206l-24-18v-24l24-18l24,18
		v24L200,206z M104,150l-24-18v-24l24-18l24,18v24L104,150z M144,108l24-18l24,18v24l-24,18l-24-18V108z M296,90l24,18v24l-24,18
		l-24-18v-24L296,90z M304,164l24-18l24,18v24l-24,18l-24-18V164z M328,94l-24-18V48h2.296l41.192,31.384L328,94z M288,76l-24,18
		l-24-18V48h48V76z M224,76l-24,18l-24-18V48h48V76z M160,76l-24,18l-24-18V48h48V76z M16,108l24-18l24,18v24l-24,18l-24-18V108z
		 M48,164l24-18l24,18v4h16v-4l24-18l24,18v24l-24,18l-24-18v-4H96v4l-24,18l-24-18V164z M80,244v-24l24-18l24,18v24l-24,18L80,244z
		 M144,244v-24l24-18l24,18v24l-24,18L144,244z M208,244v-24l24-18l24,18v24l-24,18L208,244z M320,244l-24,18l-24-18v-24l24-18
		l24,18V244z M416,188l-24,18l-24-18v-24l24-18l24,18V188z M424,150l-24-18v-12.608l32.152,24.496L424,150z M480,32H349.336
		L468.8,121.6l-14.36,19.152L311.704,32H16V16h464V32z"/>
	<path style="fill:#333333;" d="M200,464v16c30.872,0,56-25.128,56-56h-16C240,446.056,222.056,464,200,464z"/>
</g>
<g>
</g>
<g>
</g>
<g>
</g>
<g>
</g>
<g>
</g>
<g>
</g>
<g>
</g>
<g>
</g>
<g>
</g>
<g>
</g>
<g>
</g>
<g>
</g>
<g>
</g>
<g>
</g>
<g>
</g>
</svg>
