<?xml version="1.0" encoding="iso-8859-1"?>
<!-- Generator: Adobe Illustrator 19.0.0, SVG Export Plug-In . SVG Version: 6.00 Build 0)  -->
<svg version="1.1" id="Capa_1" xmlns="http://www.w3.org/2000/svg" xmlns:xlink="http://www.w3.org/1999/xlink" x="0px" y="0px"
	 viewBox="0 0 496 496" style="enable-background:new 0 0 496 496;" xml:space="preserve">
<g>
	<rect x="16" y="344" style="fill:#FFA64D;" width="80" height="40"/>
	<rect x="400" y="344" style="fill:#FFA64D;" width="80" height="40"/>
	<path style="fill:#FFA64D;" d="M369.792,8.48C368.6,8.16,367.376,8,366.144,8C358.336,8,352,14.336,352,22.144V40
		c0,4.416-3.584,8-8,8h-44.248c-15.928,0-29.424,11.712-31.68,27.472l-1.816,12.688C264.96,97.248,257.184,104,248,104
		c-9.184,0-16.968-6.752-18.264-15.84l-1.816-12.688C225.672,59.712,212.168,48,196.248,48H152c-4.416,0-8-3.584-8-8V22.144
		C144,14.336,137.664,8,129.856,8c-1.232,0-2.456,0.16-3.648,0.48L112,12.264V56c0,13.256,10.744,24,24,24h53.312
		c3.984,0,7.36,2.928,7.92,6.872l0.832,5.824C201.616,117.544,222.896,136,248,136s46.384-18.456,49.936-43.312l0.832-5.824
		c0.56-3.944,3.936-6.872,7.92-6.872H328h16h16c13.256,0,24-10.744,24-24V12.264L369.792,8.48z"/>
</g>
<g>
	<path style="fill:#333333;" d="M496,89.168C496,56.608,474.024,28,442.552,19.6L371.824,0.744C369.96,0.248,368.048,0,366.152,0
		C353.936,0,344,9.936,344,22.152V40h-44.248c-19.776,0-36.8,14.768-39.592,34.344l-1.808,12.68C257.608,92.144,253.168,96,248,96
		s-9.608-3.856-10.344-8.968l-1.816-12.688C233.048,54.768,216.024,40,196.248,40H152V22.152C152,9.936,142.064,0,129.848,0
		c-1.896,0-3.816,0.248-5.704,0.752L53.448,19.6C21.976,28,0,56.608,0,89.168V352h88v144h320V352h88V89.168z M16,336V89.168
		c0-25.328,17.096-47.584,41.568-54.112L104,22.68v101.552c0,22.168-5.24,44.368-15.16,64.192L88,190.112V336H16z M392,480H104
		V193.856c10.472-21.592,16-45.632,16-69.632V18.408l8.248-2.2c3.968-1.056,7.752,2.024,7.752,5.944V40c0,8.816,7.176,16,16,16
		h44.248c11.864,0,22.08,8.856,23.752,20.608l1.816,12.696C223.672,102.24,234.928,112,248,112c13.072,0,24.328-9.76,26.184-22.704
		L276,76.608C277.672,64.856,287.88,56,299.752,56H344c8.816,0,16-7.184,16-16V22.152c0-3.912,3.944-6.92,7.728-5.944l8.272,2.2
		v105.816c0,24,5.528,48.04,16,69.632V480z M480,336h-72V190.112l-0.848-1.688C397.24,168.592,392,146.392,392,124.224V22.672
		l46.432,12.376C462.904,41.584,480,63.84,480,89.168V336z"/>
	<path style="fill:#333333;" d="M272,216h96v-48h-96V216z M288,184h64v16h-64V184z"/>
	<path style="fill:#333333;" d="M120,424c0,13.232,10.768,24,24,24h64c13.232,0,24-10.768,24-24v-88H120V424z M208,432h-64
		c-4.416,0-8-3.584-8-8v-40.208c6.704,5.08,14.96,8.208,24,8.208h32c9.04,0,17.296-3.128,24-8.208V424
		C216,428.416,212.416,432,208,432z M216,352c0,13.232-10.768,24-24,24h-32c-13.232,0-24-10.768-24-24H216z"/>
</g>
<g>
</g>
<g>
</g>
<g>
</g>
<g>
</g>
<g>
</g>
<g>
</g>
<g>
</g>
<g>
</g>
<g>
</g>
<g>
</g>
<g>
</g>
<g>
</g>
<g>
</g>
<g>
</g>
<g>
</g>
</svg>
