<?xml version="1.0" encoding="iso-8859-1"?>
<!-- Generator: Adobe Illustrator 19.0.0, SVG Export Plug-In . SVG Version: 6.00 Build 0)  -->
<svg version="1.1" id="Capa_1" xmlns="http://www.w3.org/2000/svg" xmlns:xlink="http://www.w3.org/1999/xlink" x="0px" y="0px"
	 viewBox="0 0 496 496" style="enable-background:new 0 0 496 496;" xml:space="preserve">
<path style="fill:#FFA64D;" d="M311.04,335.88c-35.368-35.152-57.544-75.248-63.048-108.424v0.776
	c-5.736,33.016-27.968,72.792-63.04,107.648c-7.448,7.4-15.12,14.216-22.896,20.432C170.752,431.64,205.928,488,248,488
	s77.248-56.36,85.936-131.688C326.16,350.096,318.488,343.28,311.04,335.88z"/>
<g>
	<path style="fill:#333333;" d="M429.128,218.456c-37.12-36.904-78.872-59.608-114.064-65.112c3.176-8.24,4.936-16.992,4.936-25.912
		c0-30.448-19.016-56.472-45.776-66.984l5.368-12.528C287.904,28.528,306.904,16,328,16c17.648,0,32,14.352,32,32s-14.352,32-32,32
		v16c26.472,0,48-21.528,48-48S354.472,0,328,0c-27.504,0-52.272,16.336-63.112,41.616l-6.288,14.68
		c-3.472-0.512-6.992-0.864-10.6-0.864s-7.128,0.352-10.6,0.872l-6.288-14.68C220.272,16.336,195.504,0,168,0
		c-26.472,0-48,21.528-48,48s21.528,48,48,48V80c-17.648,0-32-14.352-32-32s14.352-32,32-32c21.096,0,40.096,12.528,48.408,31.912
		l5.368,12.528C195.016,70.96,176,96.984,176,127.432c0,8.92,1.76,17.68,4.936,25.92C145.752,158.856,104,181.56,66.872,218.456
		C25.624,259.448,0,309.096,0,348.024c0,18.08,5.624,33.232,16.272,43.824c11.072,11.008,26.4,16.24,44.2,16.24
		c28.08,0,62.288-13.08,95.568-37.12C168.008,445.248,204.768,496,248,496s79.992-50.752,91.96-125.032
		c33.28,24.04,67.488,37.112,95.568,37.112c17.8,0,33.136-5.24,44.2-16.24C490.376,381.256,496,366.104,496,348.024
		C496,309.096,470.376,259.448,429.128,218.456z M192,127.432c0-30.872,25.128-56,56-56s56,25.128,56,56
		c0,8.544-2.048,16.888-5.752,24.488c-17.472,0.152-32.528,5.384-43.44,16.24c-2.592,2.584-4.88,5.44-6.872,8.536
		c-1.976-3.064-4.152-5.968-6.736-8.536c-10.912-10.848-25.968-16.08-43.432-16.232C194.048,144.32,192,135.976,192,127.432z
		 M199.104,332.56C214.568,334.808,230.968,336,248,336c16.992,0,33.352-1.184,48.784-3.424c2.8,3.024,5.656,6.024,8.616,8.968
		c1.544,1.536,3.12,2.992,4.68,4.48C291.624,349.888,270.152,352,248,352c-22.16,0-43.632-2.112-62.08-5.968
		c1.56-1.488,3.136-2.944,4.68-4.48C193.56,338.608,196.312,335.576,199.104,332.56z M211.704,318.048
		c4-4.936,7.784-9.92,11.312-14.96c8.2,0.56,16.552,0.912,24.984,0.912s16.784-0.352,24.976-0.912
		c3.52,5.032,7.248,10.04,11.232,14.968C260.744,320.584,235.168,320.584,211.704,318.048z M233.032,287.672
		c6.04-10.168,11.12-20.376,15.008-30.448c3.896,10.032,8.936,20.248,14.992,30.448
		C253.096,288.096,242.976,288.096,233.032,287.672z M27.552,380.496C19.88,372.872,16,361.944,16,348.024
		c0-34.816,23.816-80.128,62.152-118.224c54.848-54.512,124.32-77.56,151.76-50.296c4.8,4.776,8.088,10.976,9.904,18.344
		c-0.832,4.48-1.296,9.192-1.296,14.144c0,5.136,0.472,10.464,1.344,15.92c-5.936,32.272-28.464,70.408-60.544,102.296
		C124.472,384.72,54.984,407.736,27.552,380.496z M248,480c-12.864,0-25.2-6.496-36.208-17.88C223.44,463.32,235.52,464,248,464
		c12.464,0,24.544-0.68,36.208-1.88C273.2,473.496,260.864,480,248,480z M323,374.824c-6.304,1.776-13.032,3.384-20.384,4.68
		l2.784,15.752c4.776-0.84,9.36-1.792,13.768-2.832c-1.496,5.776-3.176,11.296-4.992,16.632C294.696,413.544,272.008,416,248,416
		c-10.624,0-21.144-0.472-31.264-1.408l-1.472,15.936C225.872,431.504,236.888,432,248,432c20.992,0,41.12-1.792,59.216-5.12
		c-2.84,6.256-5.92,12.04-9.2,17.336c-31.136,4.872-69.056,4.872-100.032,0c-3.28-5.296-6.352-11.08-9.192-17.336
		c3.304,0.608,6.616,1.208,10.064,1.704l2.296-15.832c-6.784-0.992-13.184-2.248-19.304-3.656c-1.824-5.36-3.52-10.912-5.024-16.72
		C197.616,397.304,222.312,400,248,400c14,0,27.768-0.784,40.928-2.328l-1.856-15.888C274.52,383.248,261.376,384,248,384
		c-27.736,0-54.08-3.248-74.992-9.12c-0.92-4.96-1.728-10.032-2.408-15.216c0.256-0.216,0.52-0.424,0.776-0.64
		C193.208,364.8,220.168,368,248,368s54.792-3.2,76.624-8.984c0.256,0.216,0.52,0.424,0.776,0.64
		C324.728,364.832,323.92,369.88,323,374.824z M468.448,380.496c-27.432,27.24-96.928,4.2-151.768-50.296
		c-38.336-38.104-62.16-83.408-62.16-118.224c0-13.92,3.888-24.856,11.56-32.48c7.856-7.808,19.152-11.48,32.56-11.48
		c33.448,0,80.056,22.872,119.192,61.784C456.176,267.896,480,313.2,480,348.024C480,361.944,476.12,372.872,468.448,380.496z"/>
	<path style="fill:#333333;" d="M436.128,307.592c2.592,5.176,4.808,10.28,6.576,15.184l15.048-5.456
		c-1.984-5.48-4.448-11.168-7.312-16.88L436.128,307.592z"/>
	<path style="fill:#333333;" d="M406.56,241.152c-18.248-18.144-38.656-33.112-59-43.28l-7.16,14.312
		c18.848,9.424,37.816,23.36,54.872,40.312c12.624,12.544,23.456,25.928,32.176,39.784l13.528-8.528
		C431.624,268.872,420.048,254.544,406.56,241.152z"/>
	<path style="fill:#333333;" d="M136.776,209.216l7.168,14.296c5.104-2.552,10.208-4.776,15.176-6.584l-5.472-15.032
		C148.104,203.912,142.424,206.384,136.776,209.216z"/>
	<path style="fill:#333333;" d="M77.488,253.08c-18.144,18.248-33.112,38.656-43.28,59l14.312,7.16
		c9.424-18.848,23.36-37.824,40.312-54.872c12.536-12.616,25.92-23.44,39.784-32.168l-8.528-13.528
		C105.2,228.032,90.872,239.608,77.488,253.08z"/>
</g>
<g>
</g>
<g>
</g>
<g>
</g>
<g>
</g>
<g>
</g>
<g>
</g>
<g>
</g>
<g>
</g>
<g>
</g>
<g>
</g>
<g>
</g>
<g>
</g>
<g>
</g>
<g>
</g>
<g>
</g>
</svg>
