<?xml version="1.0" encoding="iso-8859-1"?>
<!-- Generator: Adobe Illustrator 19.0.0, SVG Export Plug-In . SVG Version: 6.00 Build 0)  -->
<svg version="1.1" id="Capa_1" xmlns="http://www.w3.org/2000/svg" xmlns:xlink="http://www.w3.org/1999/xlink" x="0px" y="0px"
	 viewBox="0 0 496 496" style="enable-background:new 0 0 496 496;" xml:space="preserve">
<path style="fill:#333333;" d="M464,188.752V72h-16v24h-16v16h16v83.312l2.344,2.344c19.128,19.128,29.656,44.552,29.656,71.6V400
	c0,8.816-7.184,16-16,16c-8.824,0-16-7.184-16-16V272h-16v128v40c0,8.816-7.184,16-16,16c-8.824,0-16-7.184-16-16V272h-16v168v24
	c0,8.816-7.184,16-16,16c-8.824,0-16-7.184-16-16v-32V272h-16v160c0,8.816-7.184,16-16,16c-8.824,0-16-7.184-16-16v-72v-88h-16v88
	c0,8.816-7.184,16-16,16c-8.824,0-16-7.184-16-16v-86.92c0-20.064,5.88-39.488,17.008-56.168L288,194.424V112h128V96H288V72h-16
	v117.576l-12.304,18.464c-1.312,1.96-2.512,3.984-3.696,6.008V136c0-17.648-14.352-32-32-32c-5.856,0-11.272,1.696-16,4.448V64
	c0-17.648-14.352-32-32-32c-5.856,0-11.272,1.696-16,4.448V32c0-17.648-14.352-32-32-32c-16.496,0-29.952,12.584-31.664,28.632
	C91.544,25.76,85.992,24,80,24c-17.648,0-32,14.352-32,32v12.448C43.272,65.696,37.856,64,32,64C14.352,64,0,78.352,0,96v130.744
	c0,30.2,11.336,58.656,32,80.512V424h16v-24h128v-16H48v-83.312l-2.344-2.344C26.528,279.216,16,253.792,16,226.744V96
	c0-8.824,7.184-16,16-16s16,7.176,16,16v128h16V96V56c0-8.824,7.184-16,16-16s16,7.176,16,16v168h16V56V32c0-8.824,7.184-16,16-16
	s16,7.176,16,16v32v160h16V64c0-8.824,7.176-16,16-16c8.816,0,16,7.176,16,16v72v88h16v-88c0-8.824,7.176-16,16-16
	c8.816,0,16,7.176,16,16v86.92c0,20.064-5.88,39.488-17.008,56.168L208,301.576V384h-16v16h16v24h16V306.424l12.304-18.464
	c1.312-1.96,2.512-3.984,3.696-6.008V360c0,17.648,14.352,32,32,32c5.856,0,11.272-1.696,16-4.448V432c0,17.648,14.352,32,32,32
	c5.856,0,11.272-1.696,16-4.448V464c0,17.648,14.352,32,32,32c16.496,0,29.952-12.584,31.664-28.632
	C404.456,470.24,410.008,472,416,472c17.648,0,32-14.352,32-32v-12.448c4.728,2.752,10.144,4.448,16,4.448c17.648,0,32-14.352,32-32
	V269.256C496,239.056,484.664,210.6,464,188.752z"/>
<g>
	<path style="fill:#FFA64D;" d="M240,496H16v-80h224V496z"/>
	<path style="fill:#FFA64D;" d="M480,80H256V0h224V80z"/>
</g>
<g>
</g>
<g>
</g>
<g>
</g>
<g>
</g>
<g>
</g>
<g>
</g>
<g>
</g>
<g>
</g>
<g>
</g>
<g>
</g>
<g>
</g>
<g>
</g>
<g>
</g>
<g>
</g>
<g>
</g>
</svg>
