<?xml version="1.0" encoding="iso-8859-1"?>
<!-- Generator: Adobe Illustrator 19.0.0, SVG Export Plug-In . SVG Version: 6.00 Build 0)  -->
<svg version="1.1" id="Capa_1" xmlns="http://www.w3.org/2000/svg" xmlns:xlink="http://www.w3.org/1999/xlink" x="0px" y="0px"
	 viewBox="0 0 502.624 502.624" style="enable-background:new 0 0 502.624 502.624;" xml:space="preserve">
<g>
	
		<rect x="150.756" y="220.137" transform="matrix(-0.7071 0.7071 -0.7071 -0.7071 561.5707 354.743)" style="fill:#FFA64D;" width="113.119" height="147.079"/>
	<path style="fill:#FFA64D;" d="M267.312,129.656l23.432,23.432c31.24,31.24,81.896,31.24,113.136,0l63.432-63.432L267.312,129.656z
		"/>
</g>
<g>
	<path style="fill:#333333;" d="M502.624,113.656l-32.68-32.688l-206.576,41.32l-16.056,16.056L232.968,124l-11.312,11.312
		L236,149.656l-8.992,8.992c-0.648-6.848-3.408-13.032-7.696-17.936V1.656h-48v139.056c-4.92,5.624-8,12.896-8,20.944
		c0,16.616,12.768,30.152,28.992,31.696L100,285.656l12,12l-12.688,12.688l-12-12L40,345.656H24l-24,24l131.312,131.312l24-24v-16
		l47.312-47.312l-12-12l12.688-12.688l12,12l136-136l14.344,14.344L376.968,268l-14.344-14.344L502.624,113.656z M203.312,17.656
		v113.136c-2.568-0.672-5.224-1.136-8-1.136s-5.432,0.464-8,1.136V17.656H203.312z M179.312,161.656c0-8.824,7.184-16,16-16
		s16,7.176,16,16c0,8.816-7.184,16-16,16S179.312,170.472,179.312,161.656z M442.976,102.68l-44.744,44.744
		c-28.08,28.08-73.752,28.08-101.832,0l-12.864-12.864L442.976,102.68z M267.312,140.968l17.776,17.776
		c17.16,17.16,39.688,25.736,62.224,25.736s45.072-8.576,62.224-25.736l57.776-57.776L480,113.656L351.312,242.344l-92.688-92.688
		L267.312,140.968z M147.312,446.344l-10.336-10.336l-11.312,11.312l13.648,13.648v9.376l-8,8L22.624,369.656l8-8H40l73.36,73.36
		l11.312-11.312l-70.048-70.048l32.688-32.688L180,413.656L147.312,446.344z M179.312,390.344l-68.688-68.688l12.688-12.688
		L192,377.656L179.312,390.344z M166.624,329.656h4.688v-16h-16v4.688l-16-16v-4.688h-4.688l-12-12l4-4h12.688v-12.688l16-16v12.688
		h16v-16h-12.688l36.688-36.688L232,249.656h-12.688v16h16v-12.688l16,16v12.688H264l24,24l-24,24h-12.688v12.688l-16,16v-12.688
		h-16v16H232l-16.688,16.688L166.624,329.656z M299.312,294.344l-92.688-92.688l40.688-40.688L340,253.656L299.312,294.344z"/>
	<rect x="187.312" y="233.656" style="fill:#333333;" width="16" height="16"/>
	<rect x="187.312" y="265.656" style="fill:#333333;" width="16" height="16"/>
	<rect x="187.312" y="297.656" style="fill:#333333;" width="16" height="16"/>
	<rect x="187.312" y="329.656" style="fill:#333333;" width="16" height="16"/>
	<rect x="219.312" y="281.656" style="fill:#333333;" width="16" height="16"/>
	<rect x="219.312" y="313.656" style="fill:#333333;" width="16" height="16"/>
	<rect x="251.312" y="297.656" style="fill:#333333;" width="16" height="16"/>
	<rect x="155.312" y="281.656" style="fill:#333333;" width="16" height="16"/>
</g>
<g>
</g>
<g>
</g>
<g>
</g>
<g>
</g>
<g>
</g>
<g>
</g>
<g>
</g>
<g>
</g>
<g>
</g>
<g>
</g>
<g>
</g>
<g>
</g>
<g>
</g>
<g>
</g>
<g>
</g>
</svg>
