<?xml version="1.0" encoding="iso-8859-1"?>
<!-- Generator: Adobe Illustrator 19.0.0, SVG Export Plug-In . SVG Version: 6.00 Build 0)  -->
<svg version="1.1" id="Capa_1" xmlns="http://www.w3.org/2000/svg" xmlns:xlink="http://www.w3.org/1999/xlink" x="0px" y="0px"
	 viewBox="0 0 496 496" style="enable-background:new 0 0 496 496;" xml:space="preserve">
<g>
	<path style="fill:#FFA64D;" d="M432,384H64V256h368V384z"/>
	<polygon style="fill:#FFA64D;" points="376,88 408,112 408,144 376,168 344,144 344,112 	"/>
	<polygon style="fill:#FFA64D;" points="280,144 248,168 248,200 312,200 312,168 	"/>
	<polygon style="fill:#FFA64D;" points="248,88 280,112 280,144 248,168 216,144 216,112 	"/>
	<polygon style="fill:#FFA64D;" points="56,88 88,112 88,144 56,168 24,144 24,112 	"/>
	<polygon style="fill:#FFA64D;" points="56,72 56,88 88,112 120,88 120,72 	"/>
</g>
<path style="fill:#333333;" d="M480,108V80h16V32H336v-8c0-13.232-10.768-24-24-24H184c-13.232,0-24,10.768-24,24v8H0v48h16v28v40
	v44H0v48h16v224h16v32h48v-32h336v32h48v-32h16V240h16v-48h-16v-44V108z M464,96l-16-12v-4h16V96z M440,158l-24-18v-24l24-18l24,18
	v24L440,158z M384,192v-20l24-18l24,18v20H384z M64,80h48v4l-24,18L64,84V80z M432,84l-24,18l-24-18v-4h48V84z M376,158l-24-18v-24
	l24-18l24,18v24L376,158z M312,158l-24-18v-24l24-18l24,18v24L312,158z M248,158l-24-18v-24l24-18l24,18v24L248,158z M184,158
	l-24-18v-24l24-18l24,18v24L184,158z M120,158l-24-18v-24l24-18l24,18v24L120,158z M368,84l-24,18l-24-18v-4h48V84z M304,84l-24,18
	l-24-18v-4h48V84z M240,84l-24,18l-24-18v-4h48V84z M176,84l-24,18l-24-18v-4h48V84z M56,98l24,18v24l-24,18l-24-18v-24L56,98z
	 M64,172l24-18l24,18v20H64V172z M128,172l24-18l24,18v20h-48V172z M192,172l24-18l24,18v20h-48V172z M256,172l24-18l24,18v20h-48
	V172z M320,172l24-18l24,18v20h-48V172z M176,24c0-4.416,3.584-8,8-8h128c4.416,0,8,3.584,8,8v8H176V24z M16,48h464v16H16V48z
	 M32,80h16v4L32,96V80z M32,160l16,12v20H32V160z M64,480H48v-16h16V480z M448,480h-16v-16h16V480z M480,224h-32v16h16v208H32V240
	h400v-16H16v-16h16h432h16V224z M464,192h-16v-20l16-12V192z"/>
<g>
</g>
<g>
</g>
<g>
</g>
<g>
</g>
<g>
</g>
<g>
</g>
<g>
</g>
<g>
</g>
<g>
</g>
<g>
</g>
<g>
</g>
<g>
</g>
<g>
</g>
<g>
</g>
<g>
</g>
</svg>
