<?xml version="1.0" encoding="iso-8859-1"?>
<!-- Generator: Adobe Illustrator 19.0.0, SVG Export Plug-In . SVG Version: 6.00 Build 0)  -->
<svg version="1.1" id="Capa_1" xmlns="http://www.w3.org/2000/svg" xmlns:xlink="http://www.w3.org/1999/xlink" x="0px" y="0px"
	 viewBox="0 0 496 496" style="enable-background:new 0 0 496 496;" xml:space="preserve">
<g>
	<path style="fill:#FFA64D;" d="M248,240H40v-48h208V240z"/>
	<path style="fill:#FFA64D;" d="M248,448H40v-48h208V448z"/>
	<rect x="456" y="232" style="fill:#FFA64D;" width="32" height="208"/>
	<rect x="296" y="232" style="fill:#FFA64D;" width="32" height="208"/>
</g>
<path style="fill:#333333;" d="M448,224v11.056l-24-12l-32,16l-32-16l-24,12V224h-48v16h-32v-80v-16v-4.328l-15.744-10.296
	L256.944,96L245.96,74.04L216,59.056V36c0-11.032,8.968-20,20-20s20,8.968,20,20v4h16v-4c0-19.848-16.152-36-36-36s-36,16.152-36,36
	v15.056L177.888,40h-22.84L142.36,65.376L49.472,4.632C44.832,1.6,39.456,0,33.92,0h-5.512C12.744,0,0,12.744,0,28.408
	c0,3.32,0.576,6.584,1.712,9.704l19.832,54.552C28.48,111.744,32,131.704,32,152v320c0,13.232,10.768,24,24,24h176
	c13.232,0,24-10.768,24-24v-40h32v16h48v-11.056l24,12l32-16l32,16l24-12V448h48V224H448z M288,256v16h-32v-16H288z M256,288h32v96
	h-32V288z M164.944,56h9.16l59.928,29.96L239.056,96l-12.28,24.56l-70.92-46.376L164.944,56z M16.744,32.64
	C16.248,31.28,16,29.856,16,28.408C16,21.56,21.56,16,28.408,16h5.512c2.416,0,4.76,0.704,6.792,2.024L233.384,144H47.656
	c-0.816-19.4-4.416-38.488-11.072-56.808L16.744,32.64z M240,472c0,4.416-3.584,8-8,8H56c-4.416,0-8-3.584-8-8V160h192V472z
	 M256,416v-16h32v16H256z M320,432h-16V240h16V432z M336,252.944l16-8V392h16V244.944l16,8v166.112l-16,8V408h-16v19.056l-16-8
	V252.944z M432,427.056V280h-16v147.056l-16-8V252.944l16-8V264h16v-19.056l16,8v166.112L432,427.056z M480,432h-16V240h16V432z"/>
<g>
</g>
<g>
</g>
<g>
</g>
<g>
</g>
<g>
</g>
<g>
</g>
<g>
</g>
<g>
</g>
<g>
</g>
<g>
</g>
<g>
</g>
<g>
</g>
<g>
</g>
<g>
</g>
<g>
</g>
</svg>
