<?xml version="1.0" encoding="iso-8859-1"?>
<!-- Generator: Adobe Illustrator 19.0.0, SVG Export Plug-In . SVG Version: 6.00 Build 0)  -->
<svg version="1.1" id="Capa_1" xmlns="http://www.w3.org/2000/svg" xmlns:xlink="http://www.w3.org/1999/xlink" x="0px" y="0px"
	 viewBox="0 0 496 496" style="enable-background:new 0 0 496 496;" xml:space="preserve">
<g>
	<polygon style="fill:#FFA64D;" points="40,104 8,104 8,168 40,168 64,136 	"/>
	<polygon style="fill:#FFA64D;" points="64,328 96,328 120,296 96,264 64,264 40,296 	"/>
	<path style="fill:#FFA64D;" d="M328,360v56v16v24c0,8.84,7.16,16,16,16l0,0c8.84,0,16-7.16,16-16v-48c0-8.84,7.16-16,16-16l0,0
		c8.84,0,16,7.16,16,16l0,0c0,8.84,7.16,16,16,16l0,0c8.84,0,16,7.16,16,16l0,0c0,8.84,7.16,16,16,16l0,0c8.84,0,16,7.16,16,16l0,0
		c0,8.84,7.16,16,16,16l0,0c8.84,0,16-7.16,16-16V360H328z"/>
	<path style="fill:#FFA64D;" d="M376,296h-17.264c-8.664,14.96-20.264,27.952-34.016,38.288L344,360h32l24-32L376,296z"/>
	<polygon style="fill:#FFA64D;" points="456,232 432,264 456,296 488,296 488,232 	"/>
	<polygon style="fill:#FFA64D;" points="400,200 432,200 456,168 432,136 400,136 376,168 	"/>
</g>
<g>
	<path style="fill:#333333;" d="M360,64V32c0-17.648-14.352-32-32-32H168c-17.648,0-32,14.352-32,32v32H0v40v8v240v24v24h320v16h16
		v-48h116h28v104c0,4.416-3.584,8-8,8s-8-3.584-8-8c0-13.232-10.768-24-24-24c-4.416,0-8-3.584-8-8c0-13.232-10.768-24-24-24
		c-4.416,0-8-3.584-8-8c0-13.232-10.768-24-24-24s-24,10.768-24,24v48c0,4.416-3.584,8-8,8s-8-3.584-8-8v-24h-16v24
		c0,13.232,10.768,24,24,24s24-10.768,24-24v-48c0-4.416,3.584-8,8-8s8,3.584,8,8c0,13.232,10.768,24,24,24c4.416,0,8,3.584,8,8
		c0,13.232,10.768,24,24,24c4.416,0,8,3.584,8,8c0,13.232,10.768,24,24,24s24-10.768,24-24V368v-8V112v-8V64H360z M152,32
		c0-8.824,7.184-16,16-16h160c8.816,0,16,7.176,16,16v32h-16V32H168v32h-16V32z M312,64H184V48h128V64z M16,80h464v16h-28h-72h-40
		H156h-40H44H16V80z M480,352h-20l-18-24l18-24h20V352z M404,320l-18-24l18-24h24l18,24l-18,24H404z M311.864,352
		c3.832-2.048,7.544-4.272,11.144-6.664L328,352H311.864z M36,112l18,24l-18,24H16v-48H36z M172.992,118.664L168,112h16.136
		C180.304,114.048,176.592,116.272,172.992,118.664z M148,112l12.224,16.296c-10.696,9.064-19.904,19.776-27.392,31.704H124l-18-24
		l18-24H148z M124,288l-18-24l7.872-10.496c1.936,12.104,5.424,23.672,10.336,34.496H124z M92,320H68l-18-24l18-24h24l18,24L92,320z
		 M68,144h24l18,24l-18,24H68l-18-24L68,144z M68,208h24l18,24l-18,24H68l-18-24L68,208z M113.872,210.496L106,200l18-24h0.208
		C119.288,186.824,115.808,198.392,113.872,210.496z M92,128H68l-12-16h48L92,128z M16,176h20l18,24l-18,24H16V176z M16,240h20
		l18,24l-18,24H16V240z M16,304h20l18,24l-18,24H16V304z M68,336h24l12,16H56L68,336z M124,352l-18-24l18-24h8.832
		c7.48,11.928,16.696,22.64,27.392,31.712L148,352H124z M172.992,345.336c3.6,2.392,7.312,4.616,11.144,6.664H168L172.992,345.336z
		 M128,232c0-66.176,53.832-120,120-120s120,53.824,120,120c0,66.168-53.832,120-120,120S128,298.168,128,232z M428,256h-24l-18-24
		l18-24h24l18,24L428,256z M372,288h-0.208c4.92-10.824,8.4-22.392,10.336-34.496L390,264L372,288z M372,176l18,24l-7.872,10.496
		c-1.936-12.104-5.424-23.672-10.336-34.496H372z M428,192h-24l-18-24l18-24h24l18,24L428,192z M428,128h-24l-12-16h48L428,128z
		 M372,112l18,24l-18,24h-8.832c-7.48-11.928-16.696-22.64-27.392-31.704L348,112H372z M323.008,118.664
		c-3.6-2.392-7.312-4.616-11.144-6.664H328L323.008,118.664z M335.776,335.712c10.696-9.064,19.904-19.784,27.392-31.712H372l18,24
		l-18,24h-24L335.776,335.712z M480,288h-20l-18-24l18-24h20V288z M480,224h-20l-18-24l18-24h20V224z M480,160h-20l-18-24l18-24h20
		V160z M320,384H16v-8v-8h28h276V384z M392,352l12-16h24l12,16H392z"/>
	<path style="fill:#333333;" d="M298.272,231.032c-6.904-6.904-14.872-12.104-22.448-14.616c-1.76-0.592-3.416-0.872-5.072-1.16
		c0.744-2.304,1.248-4.712,1.248-7.256c0-5.184-1.688-9.96-4.496-13.888c5.192-8.624,13.344-15.304,23.024-18.528l-5.064-15.168
		c-12.968,4.32-23.968,13.136-31.128,24.544c-2.024-0.56-4.128-0.96-6.336-0.96s-4.312,0.4-6.344,0.96
		c-7.16-11.408-18.152-20.224-31.128-24.544l-5.064,15.168c9.68,3.232,17.832,9.912,23.024,18.528
		C225.688,198.04,224,202.816,224,208c0,3.32,0.68,6.48,1.904,9.352c-6.88,2.736-13.952,7.456-20.176,13.68
		c-6.904,6.896-12.104,14.864-14.616,22.44c-3.152,9.44-1.976,17.536,3.304,22.816c0,0,0,0,0,0.008
		c3.344,3.336,7.816,5.032,13.032,5.032c3.032,0,6.312-0.576,9.784-1.736c0.824-0.272,1.672-0.696,2.504-1.04
		C225.096,294.064,235.68,304,248,304c13.272,0,24.488-11.512,29.36-28.896c3.136,1.864,6.304,3.448,9.408,4.48
		c3.472,1.16,6.752,1.736,9.784,1.736c5.216,0,9.688-1.696,13.032-5.032c0-0.008,0-0.008,0-0.008
		c5.28-5.272,6.456-13.376,3.304-22.816C310.376,245.896,305.184,237.928,298.272,231.032z M256,208c0,4.416-3.584,8-8,8
		s-8-3.584-8-8s3.584-8,8-8C252.416,200,256,203.584,256,208z M205.728,264.968v-0.008c-0.304-0.296-0.76-2.48,0.552-6.432
		c1.728-5.184,5.648-11.08,10.76-16.184c5.112-5.112,11.008-9.032,16.184-10.76c2.04-0.68,3.608-0.88,4.688-0.88
		c1.016,0,1.6,0.184,1.752,0.336c0.304,0.296,0.76,2.48-0.552,6.432c-1.728,5.176-5.648,11.08-10.76,16.184
		c-5.112,5.112-11.008,9.032-16.176,10.76C207.816,265.848,205.92,265.168,205.728,264.968z M248,288c-5.68,0-11.4-7.4-14.2-17.816
		c2.008-1.608,3.984-3.336,5.864-5.216c5.248-5.24,9.488-11.096,12.336-16.928c2.672,5.472,6.616,10.936,11.424,15.92
		C261.344,278.808,253.904,288,248,288z M298.272,264.96v0.008c-0.192,0.192-2.08,0.88-6.448-0.552
		c-5.176-1.728-11.072-5.648-16.176-10.76c-5.112-5.112-9.032-11.008-10.76-16.184c-1.312-3.952-0.856-6.136-0.544-6.44
		c0.136-0.144,0.728-0.328,1.736-0.328c1.08,0,2.648,0.2,4.696,0.88c5.176,1.728,11.08,5.648,16.184,10.76
		c5.112,5.112,9.032,11.008,10.76,16.184C299.032,262.48,298.576,264.664,298.272,264.96z"/>
	<rect x="448" y="384" style="fill:#333333;" width="16" height="16"/>
</g>
<g>
</g>
<g>
</g>
<g>
</g>
<g>
</g>
<g>
</g>
<g>
</g>
<g>
</g>
<g>
</g>
<g>
</g>
<g>
</g>
<g>
</g>
<g>
</g>
<g>
</g>
<g>
</g>
<g>
</g>
</svg>
