<?xml version="1.0" encoding="iso-8859-1"?>
<!-- Generator: Adobe Illustrator 19.0.0, SVG Export Plug-In . SVG Version: 6.00 Build 0)  -->
<svg version="1.1" id="Capa_1" xmlns="http://www.w3.org/2000/svg" xmlns:xlink="http://www.w3.org/1999/xlink" x="0px" y="0px"
	 viewBox="0 0 496 496" style="enable-background:new 0 0 496 496;" xml:space="preserve">
<circle style="fill:#FFA64D;" cx="216" cy="135.861" r="48"/>
<g>
	<path style="fill:#333333;" d="M16,399.861h220.032v-16H48v-80h201.152v-16H80V150.805l125.776-83.848
		c6.096-4.048,14.368-4.048,20.448,0l89.32,59.544l8.872-13.312l-89.328-59.544c-11.36-7.56-26.8-7.56-38.176,0L41.752,157.077
		c-2.728,1.824-5.912,2.784-9.192,2.784c-9.128,0-16.56-7.432-16.56-16.56v-2.136c0-5.616,2.816-10.8,7.52-13.864l152.744-99.624
		c23.704-15.456,55.768-15.456,79.472,0l152.744,99.624c4.704,3.072,7.52,8.248,7.52,13.864v2.136c0,9.136-7.432,16.56-16.56,16.56
		c-3.28,0-6.464-0.96-9.184-2.784l-49.832-33.224l-8.872,13.312L352,150.805v81.056h16v-70.384l13.376,8.92
		c5.368,3.576,11.608,5.464,18.064,5.464c17.952,0,32.56-14.608,32.56-32.56v-2.136c0-11.048-5.52-21.24-14.784-27.272
		L264.472,14.269c-28.904-18.84-68.032-18.84-96.936,0L14.784,113.893C5.52,119.925,0,130.117,0,141.165v2.136
		c0,17.952,14.608,32.56,32.56,32.56c6.456,0,12.696-1.888,18.064-5.472L64,161.477v126.384H32v96H0v112h360v-16H16V399.861z"/>
	<path style="fill:#333333;" d="M272,135.861c0-30.872-25.128-56-56-56s-56,25.128-56,56s25.128,56,56,56S272,166.733,272,135.861z
		 M224,175.053v-31.192h31.192C252,159.509,239.648,171.861,224,175.053z M255.192,127.861H224V96.669
		C239.648,99.861,252,112.213,255.192,127.861z M208,96.669v31.192h-31.192C180,112.213,192.352,99.861,208,96.669z
		 M176.808,143.861H208v31.192C192.352,171.861,180,159.509,176.808,143.861z"/>
	<path style="fill:#333333;" d="M144,271.861h128v-8h16v-56H144V271.861z M160,223.861h112v32H160V223.861z"/>
	<polygon style="fill:#333333;" points="236.032,335.861 236.032,319.861 112,319.861 112,367.861 232,367.861 232,351.861 
		128,351.861 128,335.861 	"/>
</g>
<path style="fill:#FFA64D;" d="M360,495.861c-74.992,0-136-61.008-136-136s61.008-136,136-136s136,61.008,136,136
	S434.992,495.861,360,495.861z"/>
<path style="fill:#333333;" d="M457.944,383.365c-3.568-13.072-11.888-26.632-23.44-38.184
	c-11.296-11.296-23.968-19.016-35.944-22.736c0.944-3.432,1.44-6.992,1.44-10.584c0-10.968-4.448-20.912-11.624-28.144l10.28-15.416
	l-13.312-8.872l-10.288,15.432c-4.656-1.904-9.728-3-15.056-3s-10.4,1.096-15.056,2.992l-10.288-15.432l-13.312,8.872l10.28,15.416
	c-7.176,7.24-11.624,17.184-11.624,28.152c0,3.656,0.504,7.272,1.472,10.752c-11.816,3.784-24.256,11.464-35.376,22.576
	c-11.544,11.544-19.864,25.112-23.44,38.184c-3.992,14.64-1.696,27.2,6.472,35.36c5.536,5.544,13.112,8.384,21.976,8.384
	c4.192,0,8.68-0.632,13.384-1.912c7.248-1.976,14.616-5.544,21.744-10.184c7.128,20.472,19.488,32.84,33.768,32.84
	c14.472,0,26.792-12.496,33.872-33.208c7.28,4.816,14.824,8.52,22.256,10.544c4.696,1.28,9.184,1.912,13.376,1.912
	c8.864,0,16.44-2.84,21.976-8.384C459.64,410.573,461.936,398.013,457.944,383.365z M384,311.861c0,2.8-0.656,5.504-1.592,8.104
	c-8.464,0.128-15.952,2.76-21.44,8.256c-0.24,0.24-0.432,0.528-0.664,0.776c-0.232-0.248-0.424-0.536-0.664-0.776
	c-5.624-5.624-13.336-8.264-22.048-8.264c-0.936-2.6-1.592-5.296-1.592-8.096c0-13.232,10.768-24,24-24S384,298.629,384,311.861z
	 M300.28,409.757c-8.744,2.368-15.968,1.528-19.84-2.344c-3.864-3.864-4.728-11.104-2.344-19.832
	c2.808-10.272,9.84-21.608,19.312-31.08c13.976-13.976,29.36-20.624,40.104-20.624c4.624,0,8.392,1.24,10.816,3.656
	c8.024,8.032,3.032,30.912-16.968,50.912C321.888,399.917,310.552,406.957,300.28,409.757z M360,431.861
	c-7.792,0-15.832-11.12-20.312-27.44c0.984-0.912,2.024-1.704,2.976-2.656c7.512-7.504,13.408-15.624,17.632-23.736
	c4.232,8.12,10.128,16.232,17.64,23.736c0.8,0.8,1.672,1.456,2.496,2.224C376,420.413,367.824,431.861,360,431.861z
	 M440.168,407.413c-3.872,3.872-11.088,4.712-19.832,2.344c-10.272-2.808-21.6-9.848-31.072-19.312
	c-20.008-20-25-42.88-16.976-50.912c2.424-2.416,6.184-3.648,10.816-3.648c10.736,0,26.12,6.648,40.096,20.616
	c9.472,9.472,16.504,20.808,19.312,31.08C444.888,396.317,444.032,403.549,440.168,407.413z"/>
<g>
</g>
<g>
</g>
<g>
</g>
<g>
</g>
<g>
</g>
<g>
</g>
<g>
</g>
<g>
</g>
<g>
</g>
<g>
</g>
<g>
</g>
<g>
</g>
<g>
</g>
<g>
</g>
<g>
</g>
</svg>
